<svg width="1818" height="307" viewBox="0 0 1818 307" fill="none" xmlns="http://www.w3.org/2000/svg">
<path fill-rule="evenodd" clip-rule="evenodd" d="M469.794 251.417L520.441 163.707L525 155.842L436.456 2.46118H346.058H336.013L324.567 22.2975L264.852 125.712L176.658 278.467L214.331 300.207C235.045 312.154 261.771 304.991 273.744 284.303L386.26 89.4456L424.583 155.842L353.772 278.492L391.444 300.232C412.159 312.179 438.885 305.016 450.858 284.303L469.845 251.442L469.794 251.417Z" fill="#266A4A"/>
<path fill-rule="evenodd" clip-rule="evenodd" d="M436.671 2.46118H346.198H336.145L324.689 22.2991L264.925 125.722L176.658 278.489L214.362 300.231C235.093 312.178 261.842 305.015 273.825 284.325L386.433 89.4525L436.671 2.46118Z" fill="#66B330"/>
<path fill-rule="evenodd" clip-rule="evenodd" d="M293.14 251.418L343.783 163.707L348.342 155.842L259.779 2.4613H169.387H159.344L147.897 22.2977L88.1874 125.712L0 278.467L37.6694 300.207C58.3826 312.154 85.1068 304.991 97.0788 284.303L209.586 89.4457L247.907 155.842L177.101 278.492L214.771 300.232C235.484 312.179 262.208 305.016 274.18 284.303L293.165 251.443L293.14 251.418Z" fill="#266A4A"/>
<path fill-rule="evenodd" clip-rule="evenodd" d="M260.012 2.4613H169.539H159.487L148.03 22.2992L88.2668 125.722L0 278.489L37.7033 300.231C58.4351 312.179 85.1833 305.015 97.1661 284.325L209.775 89.4526L260.012 2.4613Z" fill="#66B330"/>
<path d="M907.682 276.609C904.722 277.426 900.809 278.175 895.943 278.821C891.077 279.502 885.7 279.842 879.745 279.842C867.597 279.842 858.92 277.868 853.646 273.989C848.372 270.076 845.751 262.454 845.751 251.122V150.774C845.751 141.858 843.335 135.325 838.469 131.14C833.603 126.954 827.002 124.878 818.631 124.878C813.221 124.878 808.185 125.831 803.455 127.703C798.725 129.608 794.471 132.024 790.694 134.985C790.966 136.346 791.171 137.673 791.307 139.034C791.443 140.395 791.511 141.722 791.511 143.083V276.609C788.55 277.426 784.637 278.175 779.771 278.821C774.905 279.502 769.529 279.842 763.574 279.842C751.426 279.842 742.749 277.868 737.474 273.989C732.2 270.076 729.58 262.454 729.58 251.122V150.774C729.58 141.858 726.892 135.325 721.481 131.14C716.071 126.954 709.469 124.878 701.643 124.878C695.96 124.878 690.856 125.763 686.262 127.499C681.668 129.268 677.891 130.935 674.931 132.569V276.609C672.243 277.426 668.466 278.175 663.6 278.821C658.734 279.502 653.357 279.842 647.402 279.842C635.254 279.842 626.509 277.868 621.099 273.989C615.688 270.076 613 262.454 613 251.122V126.103C613 119.094 614.463 113.411 617.458 109.123C620.418 104.802 624.604 100.753 630.014 96.9754C638.929 90.7824 649.886 85.7803 662.987 82.0032C676.054 78.226 689.767 76.3545 704.059 76.3545C715.39 76.3545 726.109 77.9198 736.215 81.0163C746.322 84.1129 755.577 88.9108 763.914 95.3761C772.013 89.9997 781.166 85.474 791.409 81.833C801.651 78.192 813.799 76.3885 827.819 76.3885C838.333 76.3885 848.372 77.6816 857.968 80.2337C867.529 82.7858 875.968 86.9712 883.25 92.79C890.532 98.6088 896.385 106.129 900.843 115.453C905.3 124.776 907.512 136.04 907.512 149.242V276.677L907.682 276.609Z" fill="#266A4A"/>
<path d="M1156.9 65.8059C1156.9 71.999 1155.27 77.4775 1152.04 82.2074C1148.81 86.9373 1145.03 90.6463 1140.71 93.3345C1133.7 88.7407 1126.07 84.6914 1117.84 81.1866C1109.6 77.6817 1099.84 75.9122 1088.51 75.9122C1066.93 75.9122 1050.09 82.7178 1037.94 96.329C1025.79 109.94 1019.74 129.302 1019.74 154.381C1019.74 179.459 1026.13 199.774 1038.96 212.841C1051.76 225.942 1069.38 232.475 1091.77 232.475C1103.38 232.475 1113.28 230.91 1121.51 227.813C1129.75 224.717 1137.37 221.008 1144.38 216.686C1148.43 219.919 1151.73 224.036 1154.28 229.038C1156.84 234.04 1158.13 239.621 1158.13 245.814C1158.13 251.224 1156.7 256.261 1153.88 260.99C1151.05 265.72 1146.12 269.702 1139.11 272.934C1133.7 275.623 1126.41 278.141 1117.26 280.42C1108.07 282.7 1096.74 283.857 1083.27 283.857C1065.2 283.857 1048.32 281.305 1032.7 276.167C1017.05 271.063 1003.44 263.236 991.834 252.688C980.231 242.173 971.145 228.766 964.51 212.432C957.908 196.133 954.607 176.771 954.607 154.381C954.607 133.351 957.908 114.738 964.51 98.5408C971.111 82.3435 980.094 68.8003 991.426 57.8774C1002.76 46.9544 1015.96 38.6516 1031.07 33.0029C1046.18 27.3543 1062.34 24.4959 1079.63 24.4959C1104.16 24.4959 1123.18 28.4091 1136.66 36.2356C1150.13 44.062 1156.87 53.8961 1156.87 65.7719L1156.9 65.8059Z" fill="#E74C3C"/>
<path d="M1280.29 76.3204C1294.31 76.3204 1307.07 77.7495 1318.54 80.5739C1330 83.3982 1339.77 87.7878 1347.87 93.7087C1355.97 99.6296 1362.23 107.184 1366.69 116.371C1371.14 125.559 1373.36 136.346 1373.36 148.732V240.165C1373.36 247.175 1371.52 252.79 1367.88 256.941C1364.24 261.126 1359.85 264.699 1354.74 267.66C1346.37 272.798 1336.13 276.711 1323.98 279.399C1311.83 282.088 1298.09 283.449 1282.71 283.449C1254.9 283.449 1232.79 278.106 1216.35 267.456C1199.88 256.805 1191.68 240.54 1191.68 218.694C1191.68 200.08 1197.19 185.925 1208.29 176.227C1219.35 166.529 1236.33 160.438 1259.26 158.022L1313.06 152.373V147.915C1313.06 139.272 1309.55 132.943 1302.54 128.894C1295.53 124.844 1285.43 122.837 1272.19 122.837C1261.95 122.837 1251.88 124.062 1242.04 126.478C1232.21 128.894 1223.36 131.752 1215.53 134.985C1212.3 132.841 1209.51 129.54 1207.23 125.082C1204.95 120.625 1203.79 115.861 1203.79 110.723C1203.79 98.8469 1209.99 90.374 1222.41 85.2357C1230.23 82.2753 1239.32 80.0294 1249.73 78.5662C1260.11 77.103 1270.28 76.3544 1280.29 76.3544V76.3204ZM1282.74 237.749C1288.66 237.749 1294.55 237.137 1300.33 235.912C1306.12 234.687 1310.51 233.155 1313.47 231.25V194.023L1280.29 196.848C1271.65 197.664 1264.7 199.604 1259.46 202.7C1254.19 205.797 1251.57 210.459 1251.57 216.652C1251.57 222.845 1253.99 228.255 1258.85 232.033C1263.72 235.81 1271.65 237.681 1282.74 237.681V237.749Z" fill="#E74C3C"/>
<path d="M1585.76 219.952C1585.76 239.927 1578.34 255.478 1563.5 266.673C1548.67 277.868 1526.82 283.449 1497.97 283.449C1486.63 283.449 1476.32 282.632 1467 281.033C1457.71 279.399 1449.68 276.983 1442.94 273.751C1436.2 270.518 1430.93 266.469 1427.15 261.603C1423.38 256.737 1421.47 251.088 1421.47 244.623C1421.47 238.702 1422.7 233.632 1425.11 229.446C1427.53 225.261 1430.62 221.824 1434.4 219.136C1442.23 223.729 1451.11 227.779 1461.11 231.284C1471.08 234.789 1482.69 236.558 1495.89 236.558C1515.05 236.558 1524.61 231.182 1524.61 220.361C1524.61 215.767 1522.91 212.262 1519.54 209.846C1516.17 207.43 1510.45 205.252 1502.36 203.381L1486.16 199.74C1464.04 195.146 1447.57 188.068 1436.82 178.506C1426.03 168.944 1420.62 155.503 1420.62 138.251C1420.62 119.093 1428.38 103.917 1443.9 92.7217C1459.41 81.5265 1480.24 75.9459 1506.4 75.9459C1516.1 75.9459 1525.29 76.6945 1533.9 78.1577C1542.54 79.655 1549.93 81.8667 1556.15 84.8272C1562.35 87.7876 1567.28 91.4967 1570.92 95.9544C1574.56 100.412 1576.37 105.584 1576.37 111.539C1576.37 116.95 1575.28 121.714 1573.13 125.899C1570.99 130.084 1568.13 133.521 1564.63 136.209C1562.48 134.848 1559.28 133.385 1555.13 131.752C1550.95 130.118 1546.42 128.655 1541.59 127.294C1536.72 125.933 1531.62 124.878 1526.21 124.062C1520.8 123.245 1515.83 122.837 1511.24 122.837C1501.78 122.837 1494.46 124.13 1489.19 126.682C1483.91 129.234 1481.29 133.079 1481.29 138.217C1481.29 141.994 1482.79 144.955 1485.75 147.132C1488.71 149.31 1494.12 151.318 1501.95 153.189L1517.33 156.83C1541.86 162.241 1559.42 170.033 1569.93 180.31C1580.45 190.552 1585.72 203.789 1585.72 219.952H1585.76Z" fill="#E74C3C"/>
<path d="M1681.24 278.821C1676.38 279.502 1671 279.842 1665.04 279.842C1652.9 279.842 1644.15 277.868 1638.74 273.989C1633.33 270.076 1630.64 262.454 1630.64 251.122V13.6409C1633.6 12.8243 1637.52 12.0076 1642.38 11.2249C1647.25 10.4423 1652.62 9.99994 1658.58 9.99994C1670.73 9.99994 1679.4 12.0076 1684.68 16.0569C1689.92 20.1062 1692.57 27.7966 1692.57 39.1279V85.6441C1698.22 82.9559 1704.65 80.7101 1711.8 78.9747C1718.94 77.2393 1726.7 76.3545 1735.07 76.3545C1760.97 76.3545 1781.25 82.8879 1795.95 95.9887C1810.65 109.089 1818 128.69 1818 154.857V276.643C1815.31 277.46 1811.53 278.209 1806.67 278.855C1801.8 279.536 1796.43 279.876 1790.47 279.876C1778.32 279.876 1769.58 277.902 1764.17 274.023C1758.76 270.11 1756.07 262.488 1756.07 251.156V158.498C1756.07 146.35 1753.04 137.741 1746.95 132.603C1740.89 127.499 1733.13 124.912 1723.67 124.912C1717.45 124.912 1711.8 125.797 1706.69 127.533C1701.56 129.302 1696.86 131.378 1692.54 133.794V276.609C1689.85 277.426 1686.07 278.175 1681.21 278.821H1681.24Z" fill="#E74C3C"/>
</svg>
