<svg width="979" height="979" viewBox="0 0 979 979" fill="none" xmlns="http://www.w3.org/2000/svg">
<g clip-path="url(#clip0_16_37)">
<path d="M778.11 0H200.53C89.7803 0 0 89.7803 0 200.53V778.11C0 888.86 89.7803 978.64 200.53 978.64H778.11C888.86 978.64 978.64 888.86 978.64 778.11V200.53C978.64 89.7803 888.86 0 778.11 0Z" fill="white"/>
<path d="M695.96 560.436V578.161C716.44 576.673 743.736 572.792 758.566 590.327C770.289 572.581 798.279 570.57 813.42 584.807V560.426H843.341V577.045H860.513L862.172 578.704V601.416H843.331V723.3H813.41V620.8C813.41 598.209 777.819 592.699 774.612 616.346C772.078 634.976 782.726 641.561 800.119 640.194V666.787H778.513C772.963 666.787 763.08 658.895 758.566 655.677C746.672 667.491 731.983 668.848 715.907 665.681V639.088C732.516 642.838 746.732 638.073 744.712 618.588C744.018 611.912 736.789 601.416 729.761 601.416H695.96V723.3H666.592L664.933 721.641V607.509C664.933 601.094 650.094 600.612 645.821 601.698C643.287 602.341 635.576 609.65 633.917 611.953C616.715 635.73 640.824 663.208 641.719 687.247C642.212 700.377 637.094 712.593 630.036 723.31H598.457C604.831 712.864 611.939 701.151 611.859 688.413C611.698 664.092 588.805 642.607 601.594 616.195C604.348 610.505 609.848 606.825 612.864 601.426H523.112V613.622C548.177 613.451 578.409 630.703 581.717 657.507C585.517 688.302 568.727 711.517 536.414 708.903V682.863C544.96 680.058 551.515 680.269 552.922 669.471C555.235 651.827 539.681 639.701 523.112 640.204V723.31H492.639C488.738 723.31 437.191 682.823 428.384 678.972C427.067 676.459 427.369 649.625 428.947 647.423C431.129 644.397 455.64 628.18 460.315 625.606C465.895 622.539 471.777 619.825 477.729 617.533C488.074 613.551 498.199 616.959 493.192 601.416H414.52V578.704L416.178 577.045H657.735C658.117 577.045 663.516 578.945 664.32 579.368C666.17 580.333 665.155 583.46 668.251 582.575L666.039 560.416H695.96V560.436ZM493.182 641.32C488.064 640.446 453.137 662.031 454.404 664.565L493.182 691.178V641.31V641.32Z" fill="#E74C3C"/>
<path d="M402.324 578.161V602.542H377.943V723.32H346.917V696.174C346.917 682.149 328.719 669.612 315.337 670.064C286.462 671.019 293.128 704.72 321.43 697.843V721.671L319.771 723.33H296.506C291.218 723.33 277.967 714.322 274.337 710.039C261.86 695.31 263.097 669.632 277.092 656.27C283.054 650.58 294.194 649.625 292.113 641.31C289.398 630.422 274.066 624.52 263.811 625.827L262.775 603.035L250.52 602.552V578.171H402.324V578.161ZM346.917 602.542H292.625C305.585 610.163 313.417 618.97 319.429 632.804C324.356 644.155 319.51 644.769 335.073 649.293L346.927 659.045V602.532L346.917 602.542Z" fill="#266A4A"/>
<path d="M236.112 723.32H206.192C205.9 723.32 206.262 719.62 204.513 717.801C198.732 711.768 173.526 722.596 164.679 723.36C130.184 726.346 111.061 705.404 118.652 671.241H147.466V687.307C147.466 688.031 150.855 693.108 151.92 693.933C165.001 703.997 191.644 683.899 206.192 693.4V608.635C206.192 602.06 194.308 602.2 189.773 603.296C164.84 609.329 157.43 653.455 192.9 643.532V670.125C160.949 675.433 137.282 663.59 138.559 628.511C139.926 590.9 180.655 566.851 215.029 579.85C223.243 582.957 236.112 596.419 236.112 605.307V723.32Z" fill="#266A4A"/>
<path fill-rule="evenodd" clip-rule="evenodd" d="M655.625 447.113L696.336 376.611L700 370.289L628.827 247H556.165H548.091L538.89 262.945L490.891 346.07L420 468.856L450.281 486.331C466.932 495.934 488.414 490.176 498.038 473.547L588.479 316.919L619.284 370.289L562.366 468.876L592.647 486.351C609.297 495.954 630.78 490.196 640.404 473.547L655.665 447.133L655.625 447.113Z" fill="#266A4A"/>
<path fill-rule="evenodd" clip-rule="evenodd" d="M629 247H556.277H548.197L538.988 262.946L490.95 346.078L420 468.874L450.306 486.35C466.971 495.953 488.471 490.195 498.103 473.565L588.619 316.924L629 247Z" fill="#66B330"/>
<path fill-rule="evenodd" clip-rule="evenodd" d="M513.628 447.113L554.336 376.611L558 370.289L486.812 247H414.155H406.082L396.881 262.945L348.886 346.07L278 468.856L308.279 486.331C324.928 495.934 346.41 490.176 356.033 473.547L446.467 316.919L477.27 370.289L420.355 468.876L450.634 486.351C467.284 495.954 488.765 490.196 498.388 473.547L513.649 447.133L513.628 447.113Z" fill="#266A4A"/>
<path fill-rule="evenodd" clip-rule="evenodd" d="M487 247H414.277H406.197L396.988 262.946L348.95 346.078L278 468.874L308.306 486.35C324.971 495.953 346.471 490.195 356.103 473.565L446.619 316.924L487 247Z" fill="#66B330"/>
</g>
<defs>
<clipPath id="clip0_16_37">
<rect width="978.64" height="978.64" fill="white"/>
</clipPath>
</defs>
</svg>
