<svg width="979" height="979" viewBox="0 0 979 979" fill="none" xmlns="http://www.w3.org/2000/svg">
<g clip-path="url(#clip0_37_97)">
<path d="M778.11 0H200.53C89.7803 0 0 89.7803 0 200.53V778.11C0 888.86 89.7803 978.64 200.53 978.64H778.11C888.86 978.64 978.64 888.86 978.64 778.11V200.53C978.64 89.7803 888.86 0 778.11 0Z" fill="white"/>
<path d="M299.19 718.833C297.359 719.338 294.94 719.801 291.931 720.201C288.923 720.621 285.599 720.832 281.917 720.832C274.407 720.832 269.042 719.612 265.781 717.213C262.52 714.794 260.9 710.081 260.9 703.076V641.034C260.9 635.522 259.407 631.483 256.398 628.895C253.39 626.308 249.308 625.024 244.133 625.024C240.788 625.024 237.674 625.613 234.75 626.771C231.826 627.949 229.196 629.442 226.861 631.273C227.029 632.114 227.155 632.935 227.239 633.776C227.324 634.618 227.366 635.438 227.366 636.28V718.833C225.535 719.338 223.116 719.801 220.108 720.201C217.099 720.621 213.775 720.832 210.093 720.832C202.583 720.832 197.218 719.612 193.957 717.213C190.696 714.794 189.076 710.081 189.076 703.076V641.034C189.076 635.522 187.414 631.483 184.069 628.895C180.724 626.308 176.643 625.024 171.804 625.024C168.291 625.024 165.135 625.571 162.295 626.644C159.455 627.738 157.12 628.769 155.289 629.779V718.833C153.627 719.338 151.292 719.801 148.284 720.201C145.275 720.621 141.951 720.832 138.269 720.832C130.759 720.832 125.352 719.612 122.007 717.213C118.662 714.794 117 710.081 117 703.076V625.782C117 621.448 117.905 617.935 119.756 615.284C121.586 612.612 124.174 610.108 127.519 607.773C133.031 603.944 139.805 600.852 147.905 598.516C155.984 596.181 164.462 595.024 173.298 595.024C180.304 595.024 186.931 595.992 193.179 597.906C199.427 599.821 205.149 602.787 210.304 606.784C215.311 603.46 220.97 600.662 227.303 598.411C233.635 596.16 241.146 595.045 249.813 595.045C256.314 595.045 262.52 595.845 268.453 597.423C274.365 599 279.582 601.588 284.084 605.186C288.586 608.783 292.205 613.432 294.961 619.197C297.717 624.961 299.084 631.925 299.084 640.088V718.875L299.19 718.833Z" fill="#266A4A"/>
<path d="M453.273 588.503C453.273 592.332 452.263 595.719 450.264 598.643C448.266 601.567 445.93 603.86 443.259 605.522C438.925 602.682 434.212 600.179 429.121 598.012C424.03 595.845 417.992 594.751 410.986 594.751C397.648 594.751 387.234 598.959 379.724 607.374C372.213 615.789 368.468 627.76 368.468 643.265C368.468 658.77 372.423 671.329 380.355 679.408C388.265 687.508 399.163 691.547 413.006 691.547C420.18 691.547 426.302 690.579 431.393 688.665C436.484 686.75 441.197 684.457 445.531 681.785C448.034 683.784 450.075 686.33 451.653 689.422C453.231 692.515 454.03 695.965 454.03 699.794C454.03 703.139 453.146 706.253 451.4 709.177C449.654 712.101 446.604 714.563 442.27 716.561C438.925 718.223 434.423 719.78 428.763 721.19C423.083 722.599 416.077 723.314 407.746 723.314C396.575 723.314 386.14 721.737 376.484 718.56C366.806 715.404 358.391 710.565 351.217 704.044C344.043 697.543 338.426 689.254 334.323 679.156C330.242 669.078 328.201 657.108 328.201 643.265C328.201 630.263 330.242 618.755 334.323 608.741C338.405 598.727 343.959 590.354 350.965 583.601C357.97 576.848 366.133 571.714 375.474 568.222C384.815 564.73 394.808 562.962 405.495 562.962C420.664 562.962 432.424 565.382 440.755 570.221C449.086 575.059 453.252 581.139 453.252 588.482L453.273 588.503Z" fill="#E74C3C"/>
<path d="M529.557 595.003C538.224 595.003 546.113 595.887 553.203 597.633C560.293 599.379 566.331 602.093 571.338 605.754C576.345 609.414 580.216 614.085 582.972 619.765C585.728 625.445 587.096 632.114 587.096 639.772V696.301C587.096 700.635 585.96 704.107 583.708 706.673C581.457 709.261 578.744 711.47 575.588 713.3C570.412 716.477 564.08 718.896 556.569 720.558C549.059 722.22 540.559 723.062 531.05 723.062C513.862 723.062 500.187 719.759 490.026 713.174C479.844 706.589 474.773 696.533 474.773 683.026C474.773 671.519 478.182 662.767 485.04 656.771C491.877 650.775 502.375 647.009 516.555 645.516L549.816 642.023V639.267C549.816 633.924 547.649 630.011 543.315 627.507C538.982 625.003 532.733 623.762 524.549 623.762C518.217 623.762 511.99 624.52 505.91 626.013C499.83 627.507 494.36 629.274 489.521 631.273C487.522 629.947 485.797 627.907 484.388 625.151C482.978 622.395 482.263 619.449 482.263 616.273C482.263 608.93 486.092 603.692 493.771 600.515C498.61 598.685 504.227 597.296 510.664 596.392C517.081 595.487 523.371 595.024 529.557 595.024V595.003ZM531.071 694.808C534.732 694.808 538.371 694.429 541.948 693.672C545.524 692.914 548.238 691.968 550.069 690.789V667.774L529.557 669.52C524.213 670.025 519.921 671.224 516.681 673.139C513.42 675.053 511.8 677.935 511.8 681.764C511.8 685.593 513.294 688.938 516.303 691.273C519.311 693.609 524.213 694.766 531.071 694.766V694.808Z" fill="#E74C3C"/>
<path d="M718.415 683.805C718.415 696.154 713.829 705.769 704.656 712.69C695.484 719.612 681.977 723.062 664.137 723.062C657.131 723.062 650.757 722.557 644.992 721.568C639.249 720.558 634.284 719.065 630.118 717.066C625.953 715.067 622.692 712.564 620.357 709.555C618.021 706.547 616.843 703.055 616.843 699.057C616.843 695.397 617.601 692.262 619.094 689.674C620.588 687.087 622.503 684.962 624.838 683.3C629.677 686.14 635.167 688.644 641.353 690.81C647.517 692.977 654.691 694.071 662.854 694.071C674.698 694.071 680.61 690.747 680.61 684.057C680.61 681.217 679.558 679.05 677.475 677.556C675.392 676.063 671.858 674.716 666.851 673.559L656.837 671.308C643.162 668.468 632.98 664.092 626.331 658.18C619.662 652.269 616.317 643.959 616.317 633.292C616.317 621.448 621.114 612.065 630.707 605.143C640.301 598.222 653.176 594.772 669.354 594.772C675.35 594.772 681.03 595.235 686.353 596.139C691.697 597.065 696.262 598.432 700.112 600.263C703.941 602.093 706.991 604.386 709.242 607.142C711.494 609.898 712.609 613.096 712.609 616.778C712.609 620.123 711.935 623.068 710.61 625.656C709.285 628.243 707.517 630.368 705.35 632.03C704.025 631.189 702.047 630.284 699.481 629.274C696.893 628.264 694.095 627.36 691.108 626.518C688.099 625.677 684.943 625.024 681.598 624.52C678.253 624.015 675.182 623.762 672.342 623.762C666.493 623.762 661.97 624.562 658.709 626.139C655.448 627.717 653.828 630.095 653.828 633.271C653.828 635.607 654.754 637.437 656.584 638.783C658.415 640.13 661.76 641.371 666.598 642.528L676.108 644.779C691.276 648.124 702.132 652.942 708.632 659.295C715.133 665.628 718.394 673.812 718.394 683.805H718.415Z" fill="#E74C3C"/>
<path d="M777.448 720.201C774.44 720.621 771.116 720.832 767.434 720.832C759.923 720.832 754.517 719.612 751.172 717.213C747.827 714.794 746.165 710.081 746.165 703.076V556.251C747.995 555.746 750.414 555.241 753.423 554.757C756.431 554.273 759.755 554 763.437 554C770.947 554 776.312 555.241 779.573 557.745C782.813 560.248 784.454 565.003 784.454 572.009V600.768C787.946 599.106 791.922 597.717 796.34 596.644C800.758 595.571 805.555 595.024 810.73 595.024C826.74 595.024 839.279 599.064 848.367 607.163C857.456 615.263 862 627.381 862 643.559V718.854C860.338 719.359 858.003 719.822 854.994 720.222C851.986 720.642 848.662 720.853 844.98 720.853C837.47 720.853 832.063 719.633 828.718 717.234C825.373 714.815 823.711 710.102 823.711 703.097V645.81C823.711 638.3 821.839 632.977 818.073 629.8C814.328 626.644 809.531 625.046 803.683 625.046C799.833 625.046 796.34 625.593 793.185 626.665C790.008 627.759 787.105 629.043 784.433 630.536V718.833C782.771 719.338 780.436 719.801 777.427 720.201H777.448Z" fill="#E74C3C"/>
<path fill-rule="evenodd" clip-rule="evenodd" d="M655.625 447.113L696.336 376.611L700 370.289L628.827 247H556.165H548.091L538.89 262.945L490.891 346.07L420 468.856L450.281 486.331C466.932 495.934 488.414 490.176 498.038 473.547L588.479 316.919L619.284 370.289L562.366 468.876L592.647 486.351C609.297 495.954 630.78 490.196 640.404 473.547L655.665 447.133L655.625 447.113Z" fill="#266A4A"/>
<path fill-rule="evenodd" clip-rule="evenodd" d="M629 247H556.277H548.197L538.988 262.946L490.95 346.078L420 468.874L450.306 486.35C466.971 495.953 488.471 490.195 498.103 473.565L588.619 316.924L629 247Z" fill="#66B330"/>
<path fill-rule="evenodd" clip-rule="evenodd" d="M513.628 447.113L554.336 376.611L558 370.289L486.812 247H414.155H406.082L396.881 262.945L348.886 346.07L278 468.856L308.279 486.331C324.928 495.934 346.41 490.176 356.033 473.547L446.467 316.919L477.27 370.289L420.355 468.876L450.634 486.351C467.284 495.954 488.765 490.196 498.388 473.547L513.649 447.133L513.628 447.113Z" fill="#266A4A"/>
<path fill-rule="evenodd" clip-rule="evenodd" d="M487 247H414.277H406.197L396.988 262.946L348.95 346.078L278 468.874L308.306 486.35C324.971 495.953 346.471 490.195 356.103 473.565L446.619 316.924L487 247Z" fill="#66B330"/>
</g>
<defs>
<clipPath id="clip0_37_97">
<rect width="978.64" height="978.64" fill="white"/>
</clipPath>
</defs>
</svg>
