<svg width="1818" height="307" viewBox="0 0 1818 307" fill="none" xmlns="http://www.w3.org/2000/svg">
<path fill-rule="evenodd" clip-rule="evenodd" d="M469.794 251.417L520.441 163.707L525 155.842L436.456 2.46117H346.058H336.013L324.567 22.2975L264.852 125.712L176.658 278.467L214.331 300.207C235.045 312.154 261.771 304.991 273.744 284.303L386.26 89.4456L424.583 155.842L353.772 278.492L391.444 300.232C412.159 312.179 438.885 305.016 450.858 284.303L469.845 251.442L469.794 251.417Z" fill="#266A4A"/>
<path fill-rule="evenodd" clip-rule="evenodd" d="M436.671 2.46117H346.198H336.145L324.689 22.2991L264.925 125.722L176.658 278.489L214.362 300.231C235.093 312.178 261.842 305.015 273.825 284.325L386.433 89.4525L436.671 2.46117Z" fill="#66B330"/>
<path fill-rule="evenodd" clip-rule="evenodd" d="M293.14 251.418L343.783 163.707L348.342 155.842L259.779 2.46127H169.387H159.344L147.897 22.2976L88.1874 125.712L0 278.467L37.6694 300.207C58.3826 312.154 85.1068 304.991 97.0788 284.303L209.586 89.4457L247.907 155.842L177.101 278.492L214.771 300.232C235.484 312.179 262.208 305.016 274.18 284.303L293.165 251.443L293.14 251.418Z" fill="#266A4A"/>
<path fill-rule="evenodd" clip-rule="evenodd" d="M260.012 2.46127H169.539H159.487L148.03 22.2992L88.2668 125.722L0 278.489L37.7033 300.231C58.4351 312.178 85.1833 305.015 97.1661 284.325L209.775 89.4526L260.012 2.46127Z" fill="#66B330"/>
<path d="M1549.15 21.03V49.7C1582.26 47.3 1626.4 41.02 1650.39 69.37C1669.34 40.67 1714.61 37.42 1739.08 60.45V21.03H1787.46V47.91H1815.23L1817.92 50.6V87.33H1787.46V284.43H1739.08V118.68C1739.08 82.15 1681.53 73.24 1676.34 111.47C1672.24 141.59 1689.46 152.25 1717.58 150.03V193.03H1682.64C1673.66 193.03 1657.68 180.26 1650.39 175.06C1631.15 194.16 1607.4 196.35 1581.41 191.24V148.24C1608.26 154.31 1631.26 146.61 1627.99 115.09C1626.87 104.29 1615.18 87.32 1603.81 87.32H1549.16V284.42H1501.68L1498.99 281.73V97.18C1498.99 86.81 1474.99 86.03 1468.08 87.78C1463.99 88.81 1451.52 100.63 1448.82 104.36C1421.01 142.81 1459.99 187.25 1461.43 226.11C1462.22 247.34 1453.94 267.1 1442.54 284.43H1391.47C1401.77 267.53 1413.27 248.6 1413.14 227.99C1412.88 188.66 1375.86 153.91 1396.54 111.21C1400.99 102.01 1409.89 96.06 1414.77 87.33H1269.63V107.05C1310.17 106.78 1359.04 134.67 1364.39 178.02C1370.53 227.81 1343.38 265.35 1291.13 261.14V219.03C1304.96 214.49 1315.55 214.84 1317.83 197.37C1321.56 168.84 1296.42 149.23 1269.63 150.05V284.43H1220.36C1214.05 284.43 1130.7 218.96 1116.46 212.74C1114.34 208.67 1114.81 165.28 1117.37 161.73C1120.89 156.84 1160.53 130.62 1168.1 126.45C1177.12 121.48 1186.64 117.11 1196.26 113.4C1212.99 106.96 1229.36 112.47 1221.26 87.33H1094.04V50.6L1096.73 47.91H1487.34C1487.96 47.91 1496.69 50.99 1497.99 51.67C1500.98 53.22 1499.33 58.29 1504.35 56.86L1500.78 21.03H1549.16H1549.15ZM1221.25 151.83C1212.98 150.41 1156.5 185.32 1158.54 189.42L1221.25 232.46V151.83Z" fill="#E74C3C"/>
<path d="M1074.32 49.7V89.12H1034.9V284.43H984.73V240.53C984.73 217.86 955.3 197.58 933.66 198.3C886.97 199.85 897.74 254.35 943.52 243.21V281.73L940.83 284.42H903.2C894.65 284.42 873.21 269.85 867.35 262.93C847.18 239.11 849.18 197.6 871.81 175.98C881.45 166.77 899.46 165.23 896.1 151.78C891.71 134.18 866.92 124.63 850.33 126.75L848.66 89.9L828.84 89.12V49.7H1074.32ZM984.73 89.12H896.93C917.89 101.44 930.55 115.68 940.27 138.06C948.24 156.42 940.4 157.41 965.57 164.73L984.73 180.51V89.13V89.12Z" fill="#266A4A"/>
<path d="M805.55 284.42H757.17C756.7 284.42 757.28 278.43 754.46 275.49C745.1 265.74 704.35 283.24 690.04 284.48C634.26 289.31 603.34 255.45 615.62 200.2H662.21V226.18C662.21 227.35 667.69 235.56 669.42 236.89C690.58 253.16 733.65 220.66 757.18 236.03V98.97C757.18 88.33 737.97 88.57 730.63 90.34C690.31 100.1 678.33 171.44 735.68 155.41V198.41C684.01 206.99 645.74 187.84 647.8 131.12C650.01 70.29 715.87 31.41 771.46 52.43C784.75 57.45 805.55 79.22 805.55 93.59V284.42Z" fill="#266A4A"/>
</svg>
